<?xml version="1.0" standalone="no"?>
<!DOCTYPE svg PUBLIC "-//W3C//DTD SVG 20010904//EN"
 "http://www.w3.org/TR/2001/REC-SVG-20010904/DTD/svg10.dtd">
<svg version="1.0" xmlns="http://www.w3.org/2000/svg"
 width="1134.000000pt" height="1130.000000pt" viewBox="0 0 1134.000000 1130.000000"
 preserveAspectRatio="xMidYMid meet">
<metadata>
Created by potrace 1.16, written by Peter Selinger 2001-2019
</metadata>
<g transform="translate(0.000000,1130.000000) scale(0.100000,-0.100000)"
fill="#000000" stroke="none">
<path d="M3929 9776 c-3 -3 -42 -7 -87 -7 -53 -1 -85 -5 -92 -14 -6 -7 -32
-16 -58 -20 -68 -10 -241 -69 -325 -111 -193 -97 -343 -222 -460 -382 -21 -28
-42 -52 -47 -52 -9 0 -101 -177 -150 -289 -33 -77 -83 -260 -100 -366 -6 -33
-10 -112 -11 -176 0 -98 3 -123 19 -155 34 -65 80 -101 153 -121 65 -17 66
-17 122 6 60 25 101 64 124 119 8 19 23 106 33 195 11 89 31 202 45 251 31
114 121 277 198 362 126 137 336 265 462 280 11 2 47 10 80 18 87 23 301 31
415 16 182 -23 426 -86 451 -116 6 -8 22 -14 34 -14 79 0 466 -206 706 -377
147 -104 191 -138 200 -155 5 -10 14 -18 20 -18 27 0 561 -481 567 -512 2 -8
-34 -43 -82 -81 -133 -106 -276 -229 -393 -339 l-72 -68 -63 36 c-101 58 -286
147 -378 183 -47 18 -105 41 -130 51 -40 15 -188 58 -280 80 -19 5 -55 14 -80
20 -25 6 -50 10 -55 9 -6 -2 -62 3 -125 10 -75 9 -174 12 -285 8 -170 -5 -263
-19 -385 -57 -36 -11 -77 -20 -92 -20 -15 0 -29 -4 -32 -9 -3 -5 -48 -29 -99
-54 -106 -52 -231 -132 -297 -192 -65 -58 -200 -199 -200 -208 0 -5 -25 -46
-54 -91 -60 -89 -121 -206 -132 -252 -4 -16 -13 -42 -21 -58 -32 -63 -61 -198
-88 -407 -14 -115 -14 -116 10 -185 18 -53 33 -77 66 -106 92 -80 227 -71 304
20 45 54 65 121 65 223 0 191 92 443 219 601 72 90 180 188 206 188 7 0 28 12
45 27 18 14 59 36 93 49 34 12 94 34 132 49 99 38 274 51 486 37 114 -8 168
-15 185 -26 13 -9 40 -16 61 -16 21 0 47 -6 58 -14 11 -7 57 -23 102 -34 45
-11 115 -35 155 -52 181 -78 258 -116 258 -127 0 -29 -337 -326 -523 -460 -40
-29 -94 -70 -122 -91 -72 -57 -238 -168 -277 -187 -18 -8 -51 -28 -73 -44 -64
-48 -367 -194 -475 -230 -36 -12 -78 -27 -95 -33 -123 -43 -300 -81 -465 -99
-105 -12 -342 -5 -405 12 -22 6 -60 14 -85 19 -184 35 -413 178 -545 341 -152
187 -217 356 -255 658 -21 164 -41 225 -97 289 -26 29 -34 33 -104 38 -95 8
-138 -5 -187 -57 -76 -81 -84 -133 -57 -359 23 -187 30 -219 86 -383 98 -288
242 -496 474 -684 137 -110 334 -218 470 -255 253 -70 336 -82 560 -80 181 1
388 24 486 53 36 10 77 19 92 19 15 0 57 12 94 26 142 54 169 64 179 64 40 0
533 242 638 314 21 14 44 26 51 26 7 0 19 8 26 17 8 9 60 47 117 85 57 37 147
100 200 140 53 39 112 82 130 95 18 14 40 33 50 42 9 10 62 56 117 101 116 95
282 246 340 308 64 71 63 71 163 -5 179 -137 394 -317 458 -384 29 -30 86 -85
128 -123 42 -37 81 -76 86 -86 8 -16 -8 -34 -106 -117 -63 -54 -134 -113 -157
-131 -55 -44 -189 -165 -307 -278 -196 -187 -232 -219 -261 -232 -16 -7 -33
-22 -38 -35 -16 -42 -339 -329 -531 -472 -191 -142 -305 -223 -349 -246 -27
-15 -55 -32 -63 -38 -45 -39 -214 -131 -275 -152 -20 -6 -63 -27 -95 -46 -97
-57 -311 -130 -538 -184 -78 -19 -131 -24 -301 -27 -123 -2 -236 1 -280 7 -89
14 -316 86 -344 110 -11 10 -40 28 -65 40 -60 31 -165 118 -231 191 -98 109
-193 287 -241 450 -21 72 -48 266 -48 344 0 52 -33 117 -84 165 -38 35 -120
53 -185 40 -52 -11 -121 -46 -121 -62 0 -4 -12 -26 -26 -49 -27 -42 -27 -42
-21 -193 7 -174 51 -409 94 -503 104 -229 150 -312 223 -406 186 -240 333
-352 640 -489 54 -24 102 -37 285 -77 178 -38 576 -35 760 6 270 60 471 129
711 244 67 32 132 61 145 65 13 4 35 16 49 25 14 10 75 47 135 82 288 171 739
514 956 728 214 212 619 595 682 646 26 22 74 62 105 89 64 57 201 168 219
178 10 6 35 -11 133 -95 77 -66 244 -199 300 -238 35 -25 80 -60 99 -78 20
-18 61 -48 91 -67 257 -156 468 -268 620 -330 36 -14 85 -35 110 -45 25 -10
91 -33 147 -50 57 -17 105 -36 109 -41 3 -5 21 -9 41 -9 19 0 81 -9 136 -21
203 -41 499 -41 632 0 33 11 75 22 94 25 35 6 166 67 216 101 142 95 216 178
290 325 47 93 63 168 71 337 12 231 -28 390 -153 618 -53 97 -209 277 -292
338 -31 22 -58 45 -60 50 -2 5 -23 17 -47 28 -54 23 -66 46 -35 68 86 60 174
166 229 277 17 34 42 102 56 152 22 78 26 111 26 234 0 155 -13 240 -56 360
-51 141 -157 327 -231 403 -68 71 -197 179 -270 228 -216 143 -520 239 -783
248 -303 9 -443 -6 -760 -81 -135 -32 -426 -151 -627 -256 -70 -38 -146 -77
-168 -88 -22 -12 -61 -36 -87 -53 -56 -39 -63 -40 -84 -8 -8 13 -29 33 -46 43
-17 11 -94 80 -172 154 -162 155 -380 343 -486 420 -19 14 -79 58 -133 99 -55
41 -113 83 -131 94 -18 11 -44 27 -57 36 -179 121 -179 122 -359 208 -186 89
-285 132 -385 167 -44 15 -89 33 -100 40 -11 7 -34 12 -50 12 -17 -1 -40 4
-50 9 -11 6 -49 16 -85 22 -36 6 -103 18 -150 27 -86 16 -450 32 -461 20z
m4509 -1330 c229 -31 405 -120 568 -288 227 -233 275 -425 162 -648 -43 -86
-86 -130 -173 -181 -88 -52 -143 -62 -318 -61 -86 1 -162 4 -168 8 -6 3 -43
10 -82 15 -137 17 -462 128 -587 201 -30 18 -78 42 -107 54 -29 12 -87 43
-128 70 -42 27 -88 55 -102 63 -38 20 -300 210 -385 278 -40 32 -90 71 -111
87 -21 15 -36 33 -34 39 4 14 38 33 207 117 244 122 326 154 555 215 187 50
471 63 703 31z m-1811 -673 c26 -20 99 -80 162 -132 63 -53 126 -105 140 -115
86 -64 239 -173 256 -183 11 -6 74 -45 140 -87 66 -41 171 -100 233 -131 61
-31 112 -63 112 -70 0 -14 -74 -45 -110 -45 -13 0 -31 -6 -39 -14 -9 -7 -50
-28 -91 -45 -41 -18 -83 -36 -92 -41 -10 -6 -77 -42 -149 -80 -72 -39 -143
-79 -158 -89 -14 -10 -49 -30 -78 -46 l-52 -28 -141 134 c-77 74 -148 144
-156 157 -8 12 -20 22 -27 22 -6 0 -30 19 -52 41 -68 69 -389 333 -431 353 -1
1 -4 10 -8 21 -4 16 7 31 56 70 33 28 75 64 93 80 58 55 139 122 223 185 45
34 85 66 88 71 10 17 33 9 81 -28z m2073 -1042 c109 -16 288 -76 357 -120 32
-21 76 -46 98 -56 52 -24 217 -193 245 -251 12 -24 26 -44 31 -44 6 0 26 -35
46 -77 33 -73 36 -85 36 -178 0 -84 -4 -110 -25 -162 -58 -142 -205 -273 -333
-295 -194 -35 -482 -4 -658 70 -22 9 -46 17 -55 18 -47 8 -210 71 -321 125
-192 92 -463 257 -550 334 -20 17 -51 37 -68 44 -18 8 -33 17 -33 21 0 4 -49
47 -110 95 -60 49 -110 94 -110 99 0 12 240 146 261 146 7 0 31 11 53 24 23
13 59 29 81 36 22 7 67 26 100 42 62 31 78 36 250 82 220 60 492 78 705 47z"/>
<path d="M825 2451 c-135 -6 -169 -16 -180 -51 -3 -11 -6 -367 -7 -792 l0
-772 27 -23 c25 -22 33 -23 220 -23 178 0 199 2 264 24 73 25 144 74 180 125
11 15 33 63 48 107 l28 79 3 452 c4 497 -1 560 -54 667 -41 84 -119 154 -198
178 -36 11 -189 39 -196 36 -3 -1 -63 -4 -135 -7z m222 -262 c48 -15 90 -69
102 -131 7 -34 10 -205 8 -468 -2 -399 -3 -417 -23 -461 -32 -70 -74 -91 -171
-87 l-78 3 -2 575 c-2 442 0 576 10 582 14 10 107 2 154 -13z"/>
<path d="M6547 2440 c-21 -12 -42 -32 -47 -46 -6 -15 -10 -189 -10 -410 0
-211 -4 -384 -9 -384 -4 0 -34 66 -66 148 -32 81 -68 170 -80 197 -12 28 -60
144 -105 258 -92 229 -97 237 -179 245 -53 5 -103 -15 -121 -47 -7 -13 -10
-279 -10 -785 l0 -764 26 -31 c24 -29 30 -31 98 -31 67 0 74 2 100 29 l27 29
-1 397 c-1 405 3 441 35 355 7 -19 51 -129 98 -245 47 -115 99 -246 117 -290
109 -273 110 -275 201 -275 54 0 64 3 90 29 22 22 29 39 29 68 5 469 -2 1499
-10 1514 -27 49 -125 70 -183 39z"/>
<path d="M7493 2441 c-17 -11 -37 -29 -43 -41 -17 -32 -17 -1540 1 -1568 19
-30 52 -42 119 -42 48 0 64 5 87 24 l28 24 2 759 c2 504 -1 769 -8 791 -19 58
-127 89 -186 53z"/>
<path d="M8429 2442 c-44 -18 -56 -37 -64 -98 -8 -65 13 -120 50 -134 15 -6
71 -10 126 -10 79 0 101 -3 105 -15 3 -8 7 -314 7 -681 l2 -666 28 -24 c24
-20 39 -24 97 -24 64 0 70 2 94 31 21 24 26 41 26 82 0 29 1 331 3 672 l2 620
118 5 c115 5 120 6 143 33 19 22 24 39 24 83 0 74 -20 110 -68 124 -60 16
-653 18 -693 2z"/>
<path d="M2363 2430 c-37 -22 -31 -2 -108 -335 -14 -60 -30 -126 -36 -145 -6
-19 -16 -64 -23 -100 -22 -110 -198 -864 -205 -880 -4 -8 -8 -43 -10 -76 -2
-56 0 -63 25 -83 21 -16 41 -21 91 -21 72 0 105 16 122 58 12 32 34 111 37
132 6 53 48 237 56 248 7 8 45 12 124 12 98 0 114 -2 122 -17 5 -10 19 -65 31
-123 52 -245 55 -254 83 -282 24 -26 33 -28 102 -28 72 0 75 1 97 32 21 29 22
35 11 102 -23 139 -32 184 -56 268 -21 72 -133 553 -157 673 -10 50 -117 503
-125 528 -16 51 -122 73 -181 37z m101 -717 c9 -54 20 -122 26 -152 5 -29 7
-58 4 -62 -8 -14 -100 -11 -112 4 -7 8 -1 57 18 162 16 83 29 151 29 153 1 2
5 1 10 -2 5 -3 16 -50 25 -103z"/>
<path d="M3687 2440 c-109 -8 -107 -2 -107 -294 -2 -1281 -1 -1299 18 -1326
23 -31 82 -44 149 -33 81 14 83 20 82 386 -1 169 1 310 3 312 2 3 73 6 157 8
153 3 154 3 177 31 20 22 24 38 24 87 0 114 -25 129 -214 129 -95 0 -137 4
-142 12 -9 14 -8 427 0 436 3 3 81 6 174 8 92 1 180 2 195 3 17 1 40 13 58 30
25 25 29 37 29 85 0 64 -14 99 -44 114 -23 12 -442 21 -559 12z"/>
<path d="M5019 2422 l-34 -30 -3 -744 c-2 -409 0 -758 3 -777 4 -18 17 -44 30
-57 21 -21 34 -24 93 -24 61 0 72 3 96 26 20 21 26 37 26 73 1 82 1 1019 0
1263 0 234 0 237 -24 264 -20 24 -32 28 -88 32 -61 4 -67 2 -99 -26z"/>
<path d="M9888 2434 c-30 -16 -48 -43 -48 -70 0 -9 29 -83 64 -163 36 -80 80
-184 99 -231 20 -47 65 -150 101 -230 l66 -145 0 -373 0 -374 30 -29 c28 -28
33 -30 102 -27 70 3 73 4 95 37 23 34 23 35 23 400 l0 366 61 135 c33 74 81
184 105 244 24 60 67 161 95 224 64 144 70 178 36 217 -21 25 -33 29 -90 33
-94 6 -123 -14 -167 -115 -18 -43 -53 -120 -77 -170 -24 -51 -43 -94 -43 -97
0 -2 -9 -25 -20 -50 -14 -33 -23 -44 -35 -40 -8 3 -15 11 -15 18 -1 6 -40 101
-89 211 -102 232 -114 245 -210 245 -31 -1 -68 -7 -83 -16z"/>
</g>
</svg>
